<svg width="95" height="86" viewBox="0 0 95 86" fill="none" xmlns="http://www.w3.org/2000/svg">
<path fill-rule="evenodd" clip-rule="evenodd" d="M65.2788 0.188094C63.8961 0.628589 63.1947 1.18977 62.4885 2.41991C61.4048 4.30723 61.7247 6.62528 63.2814 8.1639C63.6225 8.50105 64.7901 9.24469 65.8758 9.81653C68.453 11.174 72.0585 13.8934 74.4541 16.2866C79.5447 21.3716 83.1858 28.1366 84.7952 35.4988C85.2319 37.4968 85.2931 38.4182 85.2931 42.9994C85.2931 47.5806 85.2319 48.5021 84.7952 50.5001C83.2265 57.676 79.5996 64.5019 74.7218 69.458C71.9826 72.2412 68.3177 74.9727 65.2399 76.5248C62.9617 77.6736 61.8493 79.2383 61.84 81.3072C61.8271 84.139 64.7396 86.5171 67.4678 85.9024C69.2846 85.493 74.114 82.5729 77.5199 79.8239C79.7927 77.9895 83.6023 74.0703 85.3383 71.7805C90.3723 65.1402 93.487 57.6451 94.6573 49.3553C95.1142 46.1191 95.1142 39.8797 94.6573 36.6436C93.7019 29.8757 91.2278 23.0803 87.7362 17.6341C83.3224 10.7497 76.5477 4.51126 69.7173 1.04153C67.6812 0.00718453 66.5374 -0.212841 65.2788 0.188094ZM41.0332 6.07877C40.5438 6.30257 35.4428 10.401 29.6975 15.186L19.2516 23.8861L14.5689 23.8906C11.9934 23.893 9.20264 23.9937 8.36746 24.1144C4.15725 24.7222 0.823842 28.0453 0.216918 32.2389C-0.0723059 34.2378 -0.0723059 51.7611 0.216918 53.76C0.823842 57.9536 4.15725 61.2766 8.36746 61.8845C9.20264 62.0052 11.9934 62.1059 14.5689 62.1083L19.2516 62.1127L29.6975 70.8129C35.4428 75.5978 40.5438 79.6963 41.0332 79.9201C43.2538 80.936 46.1498 79.8303 47.1752 77.5747C47.5697 76.7073 47.5866 75.2783 47.5866 42.9994C47.5866 10.7206 47.5697 9.29158 47.1752 8.42415C46.1498 6.16856 43.2538 5.06287 41.0332 6.07877ZM65.5064 24.1393C64.1175 24.4631 63.0233 25.3536 62.3664 26.6954C61.5416 28.3791 61.6742 29.8395 62.8115 31.6015C64.0563 33.5304 65.5198 36.6918 65.9785 38.4434C66.2764 39.5808 66.3859 40.8059 66.3859 42.9994C66.3859 45.193 66.2764 46.4181 65.9785 47.5555C65.5198 49.3071 64.0563 52.4685 62.8115 54.3974C61.6742 56.1594 61.5416 57.6198 62.3664 59.3035C63.5818 61.7854 66.371 62.6733 68.8766 61.376C69.8007 60.8975 70.8353 59.6634 72.1047 57.5249C76.6705 49.8338 77.3477 40.3951 73.9273 32.1213C73.0225 29.9324 71.4042 27.1205 70.3211 25.8548C69.0545 24.3749 67.2516 23.7326 65.5064 24.1393Z" fill="black"/>
</svg>
